<svg xmlns="http://www.w3.org/2000/svg" viewBox="0 0 627.1056 324.7641"><defs><style>.a{fill:#1ca3ec;}</style></defs><title>Balaton</title><path class="a" d="M90.3918,323.3a74.2016,74.2016,0,0,1-15-4.5136A93.2753,93.2753,0,0,0,63.89,314.4006c-6.9209-1.9122-24.2238-1.8364-28.922.1266-2.0163.8425-4.08,1.276-4.586.9633s-3.5886.123-6.85.9682a48.02,48.02,0,0,1-8.9416,1.5367c-3.7945,0-10.9946-3.7737-12.9888-6.8076A5.5191,5.5191,0,0,1,.224,309.49a1.5717,1.5717,0,0,1-.14-.61c-.37-2.31.5993-15.3467.5993-15.3467C1.062,283.84,1.8048,276.9372,2.7,274.7944c2.1346-5.1089,7.0594-8.799,11.7432-8.799,4.4743,0,15.668,3.9537,20.0718,7.0895,1.6429,1.17,6.3539,2.9683,10.469,3.9967a122.528,122.528,0,0,1,14.6747,4.8917c3.9561,1.6622,4.7,2.4937,8.1078,2.1907,3.4646-.3081,6.8412-6.1106,8.3853-10.3419.9076-2.4871,2.7288-5.4178,12.7375-17.24,3.85-4.5474,8.4892-10.4157,10.3092-13.0407,0,0,.9538-4.3017,3.3092-4.7727a11.4836,11.4836,0,0,1,3.7784.0193,43.6936,43.6936,0,0,0,7.1274.4944,6.3312,6.3312,0,0,1,4.0615.7126,18.7766,18.7766,0,0,1,4.7072,4.3909c4.0709,3.7974,9.3163,5.96,13.1918,5.5346A13.4842,13.4842,0,0,0,141.7,247.279s2.7693-3.1226,4.535-3.1226c1.7815,0,4.3659,1.7779,4.3659,1.7779,2.995,1.6786,6.9157,3.4678,10.1774,5.0977s7.46,2.9634,9.3291,2.9634h3.3987l4.1081-4.514a39.9127,39.9127,0,0,0,5.8333-8.3675,15.5629,15.5629,0,0,1,3.9725-5.4275l2.2473-1.574,8.111.5648,8.111.5649,7.8519-3.3048,7.8521-3.3049,2.262-3.5832c3.5165-5.5705,4.9714-6.4028,9.99-5.7148a15.2911,15.2911,0,0,0,8.1309-.94,15.2874,15.2874,0,0,1,8.3136-.9127,25.0077,25.0077,0,0,0,4.6113.55c1.71-.7893,4.4939-1.9546,4.4939-1.9546a23.7026,23.7026,0,0,1,7.6214-2.06c3.6309-.0255,4.598-1.0473,6.1731-6.522.7612-2.6461,3.8579-6.9919,9.1486-12.8392a135.0314,135.0314,0,0,0,10.0629-12.1805c2.6023-4.21,13.6208-12.48,16.6285-12.48a14.1258,14.1258,0,0,1,4.83,1.1685l2.5646,1.1685,4.2325-2.0767c5.0093-2.4579,14.9725-4.6363,17.5144-3.8295.9875.3134,4.3875-.1053,7.5555-.93a48.0181,48.0181,0,0,1,9.6144-1.5h3.8542l2.847-3.4548c1.9948-2.4207,5.0917-4.3269,10.3469-6.3687l7.5-2.914,1.3046-2.6312c.7175-1.4472,1.6452-2.6313,2.0614-2.6313a8.44,8.44,0,0,0,2.9387-2.0326,29.53,29.53,0,0,1,6.8584-4.0373,24.6707,24.6707,0,0,0,6.9591-4.4674c1.2553-1.3545,3.12-2.4627,4.143-2.4627,2.904,0,7.2349,5.1562,7.2349,8.6136,0,4.0186,1.5427,5.6439,15.7916,16.6364l3.5646,2.75h4.1994c4.7394,0,5.6057-.789,7.2713-6.6229l1.1772-4.123-1.5021-3.5949a21.0475,21.0475,0,0,1-1.502-6.6669c0-3.8167-3.3569-10.5777-5.9376-11.9589a16.2861,16.2861,0,0,0-6.0422-1.0334h-4.1112l-2.4545-2.4546c-1.35-1.35-2.4545-3.22-2.4545-4.1556,0-2.73,4.7862-8.24,9.0433-10.4119a17.5966,17.5966,0,0,0,5.45-4.3276c2.7611-3.9563,11.2127-9.9027,14.2345-9.9027,4.7246,0,9.0567-1.0786,9.2721-4.1132.33-4.6443,4.4264-11.2951,7.888-5.8938l5.388-.4735,3.1553-3.7583,3.1552-3.7583,4.1133-1.2108c2.1762.2812,4.6024,1.6085,5.7744,1.993a2.6561,2.6561,0,0,0,3.0783-.6365c.6073-.7345,2.5224-1.7795,3.8731-3.47a14.7774,14.7774,0,0,1,6.4988-4.2852c2.3343-.6994,4.5209-2.1473,5.1738-3.4261a47.8936,47.8936,0,0,1,5.9218-7.2147c4.7719-4.98,9.1844-13.9576,10.5832-21.5319.9769-5.29,2.9954-7.7676,7.4046-9.0886,2.2087-.6618,4.4968-1.7826,5.0845-2.4908s1.2186-4.5729,1.4018-8.5882.852-8.65,1.4861-10.3C538.677,4.0942,542.2028-.0069,543.8139,0c1.6092.0069,7.1142,5.4561,11.4738,11.3575,2.419,3.2745,5.305,5.847,7.7309,6.8912,8.9213,3.84,11.0414,4.8708,14.33,6.9685a5.1642,5.1642,0,0,0,3.459,2.2064,25.9359,25.9359,0,0,0,6.6607.1236s4.1293-1.144,6.6608.1237a13.7374,13.7374,0,0,1,4.2939,4.126,37.39,37.39,0,0,0,7.88,5.8069,81.7971,81.7971,0,0,1,10.1341,6.5234s5.2757,3.3876,6.5478,4.8425c.963,1.1014,1.6992,4.7629,1.6992,4.7629,2.7,7.5688,3.1356,13.2968,1.3375,17.6a42.3532,42.3532,0,0,0-2.25,8.9707c-1.4438,11.1736-9.048,23.5356-21.5858,35.0916-4.5632,4.2058-10.0968,8.507-12.2968,9.558s-8.275,3.8954-13.5,6.3207-12.875,6.0214-17,7.9914a102.17,102.17,0,0,1-13.3789,5.2215,33.9971,33.9971,0,0,0-8.5,3.5394c-1.4416,1.0449-6.22,2.6317-10.619,3.5262a89.9782,89.9782,0,0,0-13.9368,4.1261,82.6583,82.6583,0,0,1-12.0021,3.8167c-3.3347.7243-8.5382,1.85-11.5632,2.501s-7.3,1.7629-9.5,2.47a66.1766,66.1766,0,0,1-11,1.9561,85.8591,85.8591,0,0,0-20.11,4.578l-2.11.8241-.7056,5.3195-.7057,5.32-4.4267,4.2415a43.7826,43.7826,0,0,1-8.2513,6.1927,20.7171,20.7171,0,0,0-5.041,3.4167,13.5726,13.5726,0,0,1-4.4331,2.7516,34.9955,34.9955,0,0,0-6.8159,4.072c-3.3064,2.56-32.1878,16.5443-37.9278,18.3652-1.36.4315-6.2982,2.701-10.9732,5.0432-16.3642,8.1987-30.5385,14.6752-35,15.992-2.4751.7306-7.4723,2.451-11.105,3.8233a93.2767,93.2767,0,0,1-13,3.6954,145.0627,145.0627,0,0,0-15.1629,4.1064,138.4723,138.4723,0,0,1-14.4726,3.9607,18.4541,18.4541,0,0,0-8.8964,3.8569,22.8144,22.8144,0,0,1-7.0274,3.9663c-3.9336,1.1937-6.5976,2.2683-21.3357,8.6058-9.3459,4.0188-22.2137,8.4419-24.56,8.4419-1.8621,0-12.8154,5.4783-16.7147,8.36a38.3922,38.3922,0,0,0-6.3454,6.94,19.1081,19.1081,0,0,1-7.6791,6.6134,18.9218,18.9218,0,0,0-5.5386,3.39c-1.1815,1.4238-4.3937,2.7783-20.6628,8.7131C140.9728,323.9129,109.7487,326.7378,90.3918,323.3Z"/></svg>
