<svg version="1.1" xmlns="http://www.w3.org/2000/svg" xmlns:xlink="http://www.w3.org/1999/xlink" width="14" height="14" viewBox="0 0 14 14">
<path d="M6 13h7v-5h-3.25q-0.312 0-0.531-0.219t-0.219-0.531v-3.25h-3v9zM8 1.75v-0.5q0-0.102-0.074-0.176t-0.176-0.074h-5.5q-0.102 0-0.176 0.074t-0.074 0.176v0.5q0 0.102 0.074 0.176t0.176 0.074h5.5q0.102 0 0.176-0.074t0.074-0.176zM10 7h2.336l-2.336-2.336v2.336zM14 8v5.25q0 0.312-0.219 0.531t-0.531 0.219h-7.5q-0.312 0-0.531-0.219t-0.219-0.531v-1.25h-4.25q-0.312 0-0.531-0.219t-0.219-0.531v-10.5q0-0.312 0.219-0.531t0.531-0.219h8.5q0.312 0 0.531 0.219t0.219 0.531v2.563q0.164 0.102 0.281 0.219l3.188 3.188q0.219 0.219 0.375 0.594t0.156 0.688z"></path>
</svg>
