<svg width="30" height="29" viewBox="0 0 30 29" fill="none" xmlns="http://www.w3.org/2000/svg"><path fill-rule="evenodd" clip-rule="evenodd" d="M14.5887 29V23.3845C20.5836 23.3845 25.1924 17.4935 22.9053 11.2235C22.0737 8.91529 20.2024 7.05495 17.8807 6.22814C11.5739 3.9544 5.64836 8.57078 5.64836 14.4963H0C0 5.02237 9.21757 -2.38452 19.1975 0.716039C23.5637 2.05961 27.029 5.53912 28.4151 9.8799C31.5338 19.8361 24.1182 29 14.5887 29Z" fill="#0069FF"/><path fill-rule="evenodd" clip-rule="evenodd" d="M14.5881 23.419H8.97437V17.838H14.5881V23.419Z" fill="#0069FF"/><path fill-rule="evenodd" clip-rule="evenodd" d="M8.9739 27.7253H4.64233V23.419H8.9739V27.7253Z" fill="#0069FF"/><path fill-rule="evenodd" clip-rule="evenodd" d="M4.64438 23.419H1.00586V19.8361H4.60972V23.419H4.64438Z" fill="#0069FF"/></svg>