<svg viewBox="0 0 14 10.2667" xmlns="http://www.w3.org/2000/svg"><path d="m9.3333 5.8333a.2246.2246 0 0 0 -.2333-.2333h-1.6333v-2.5667a.2367.2367 0 0 0 -.2334-.2333h-1.4a.2367.2367 0 0 0 -.2333.2333v2.5667h-1.6333a.2367.2367 0 0 0 -.2334.2333.2268.2268 0 0 0 .0657.1677l2.5666 2.5667a.2472.2472 0 0 0 .3354 0l2.559-2.5594a.2739.2739 0 0 0 .0733-.175zm4.6667 1.6334a2.8007 2.8007 0 0 1 -2.8 2.8h-7.9333a3.1462 3.1462 0 0 1 -2.3078-.9589 3.1458 3.1458 0 0 1 -.9589-2.3078 3.261 3.261 0 0 1 1.8813-2.9531q-.0147-.2189-.0146-.3136a3.5965 3.5965 0 0 1 1.0933-2.6395 3.5968 3.5968 0 0 1 2.64-1.0938 3.737 3.737 0 0 1 3.4562 2.3188 1.8569 1.8569 0 0 1 2.53.0947 1.7989 1.7989 0 0 1 .5468 1.32 1.7849 1.7849 0 0 1 -.2986 1.0065 2.76 2.76 0 0 1 1.5567.988 2.71 2.71 0 0 1 .6089 1.7387z" fill="#fff"/></svg>