<svg xmlns="http://www.w3.org/2000/svg" viewBox="0 0 115.0745 24.1199"><defs><style>.a{fill:none;stroke:#090;stroke-linecap:round;stroke-linejoin:round;stroke-width:5px;}.b{fill:#090;}</style></defs><title>nginx</title><path class="a" d="M2.5,21.5715V2.5068L21.5625,21.5715V2.5068"/><path class="b" d="M33.14.0314l-.6875,1.2813L27.14,10.9689l-.6875,1.2188.6875,1.2187L32.4522,22.75l.7187,1.2812H47.0772l.6875-1.4062,3.9687-8L53.5147,11H49.4834l-10.1562.0312a2.5994,2.5994,0,0,0-2.5356,2.5,2.5994,2.5994,0,0,0,2.5356,2.5L45.4522,16l-1.5,3.0312h-7.875l-3.9063-6.875,3.9375-7.125h8.3772l1.9532,4.0078H51.47L48.2981,1.4377,47.6106.0314H33.14Z"/><path class="b" d="M58.4659,0a2.5981,2.5981,0,0,0-2.4687,2.5312V9.0459h5V2.5314A2.6,2.6,0,0,0,58.4659,0Z"/><path class="a" d="M85.5434,21.62V2.5552L66.4809,21.62V2.5552"/><path class="a" d="M93.4674,2.5482l19.0848,19.0179"/><path class="a" d="M112.5745,2.5482,93.49,21.5661"/><path class="b" d="M58.4659,24.048a2.5982,2.5982,0,0,1-2.4687-2.5313V11.0524h5V21.5167A2.6,2.6,0,0,1,58.4659,24.048Z"/></svg>
