<svg height="14" viewBox="0 0 12 14" width="12" xmlns="http://www.w3.org/2000/svg"><path d="m11.805 8.25q0 .039-.008.055-.5 2.094-2.094 3.395t-3.734 1.301q-1.141 0-2.207-.43t-1.902-1.227l-1.008 1.008q-.148.148-.352.148t-.352-.148-.148-.352v-3.5q0-.203.148-.352t.352-.148h3.5q.203 0 .352.148t.148.352-.148.352l-1.07 1.07q.555.516 1.258.797t1.461.281q1.047 0 1.953-.508t1.453-1.398q.086-.133.414-.914.062-.18.234-.18h1.5q.102 0 .176.074t.074.176zm.195-6.25v3.5q0 .203-.148.352t-.352.148h-3.5q-.203 0-.352-.148t-.148-.352.148-.352l1.078-1.078q-1.156-1.07-2.727-1.07-1.047 0-1.953.508t-1.453 1.398q-.086.133-.414.914-.062.18-.234.18h-1.555q-.102 0-.176-.074t-.074-.176v-.055q.508-2.094 2.109-3.395t3.75-1.301q1.141 0 2.219.434t1.914 1.223l1.016-1.008q.148-.148.352-.148t.352.148.148.352z" fill="#fff"/></svg>