<svg viewBox="0 0 120.7754 117.7934" xmlns="http://www.w3.org/2000/svg"><g fill="#191717"><path d="m60.3877 0a60.3942 60.3942 0 0 0 -19.0908 117.69c3.0176.5586 4.126-1.31 4.126-2.9053 0-1.4394-.0557-6.1972-.082-11.2431-16.8 3.6533-20.3448-7.125-20.3448-7.125-2.747-6.98-6.705-8.836-6.705-8.836-5.4795-3.748.413-3.6709.413-3.6709 6.0635.4258 9.2569 6.2237 9.2569 6.2237 5.3857 9.2314 14.1269 6.5625 17.5732 5.0195.542-3.9024 2.1065-6.5674 3.834-8.0752-13.4131-1.5264-27.5137-6.7051-27.5137-29.8438a23.37 23.37 0 0 1 6.2227-16.2089c-.627-1.5215-2.6943-7.6631.585-15.9815 0 0 5.0712-1.6221 16.61 6.1909a57.2624 57.2624 0 0 1 30.2432 0c11.5263-7.813 16.59-6.1909 16.59-6.1909 3.2871 8.3184 1.22 14.46.5928 15.9815a23.3244 23.3244 0 0 1 6.2148 16.2089c0 23.1944-14.1269 28.3008-27.5742 29.7959 2.166 1.8741 4.0957 5.5489 4.0957 11.1827 0 8.08-.0693 14.583-.0693 16.5722 0 1.6074 1.0869 3.49 4.1474 2.8975a60.3963 60.3963 0 0 0 -19.1249-117.6822z" fill-rule="evenodd"/><path d="m22.8721 86.7032c-.1328.3008-.6055.3906-1.0351.1845-.4385-.1972-.6836-.6064-.542-.9072.13-.3086.6025-.3945 1.04-.1885.4385.1973.6885.61.5371.9112zm-.7432-.5508"/><path d="m25.3184 89.4317c-.2881.2666-.8516.1426-1.2334-.2793a.9227.9227 0 0 1 -.1768-1.2549c.2969-.2666.8428-.1416 1.2383.2793.3955.4258.4727.9844.1719 1.2549zm-.5762-.6182"/><path d="m27.6993 92.9092c-.37.2578-.9756.0166-1.35-.52-.37-.5371-.37-1.1816.0087-1.4394.3741-.2578.9707-.0254 1.35.5068.3691.5459.3691 1.19-.0088 1.4531zm0 0"/><path d="m30.961 96.27c-.3311.3652-1.0362.2666-1.5518-.2315a1.1616 1.1616 0 0 1 -.3437-1.5429c.3359-.3653 1.0449-.2627 1.5644.2314.5244.4863.6836 1.1816.3311 1.543zm0 0"/><path d="m35.461 98.2207c-.1465.4727-.8252.6875-1.5088.4864-.6836-.2071-1.13-.7608-.9922-1.2383.1416-.4766.8242-.7 1.5127-.4854.6826.2061 1.13.7559.9883 1.2373zm0 0"/><path d="m40.4034 98.5821c.0166.498-.5635.9111-1.2813.92-.7217.0166-1.3066-.3867-1.3144-.877 0-.5029.5673-.9111 1.289-.9238.7178-.0137 1.3067.3867 1.3067.8809zm0 0"/><path d="m45.002 97.8c.0859.4854-.4131.9844-1.126 1.1172-.7012.1289-1.35-.1718-1.4394-.6533-.0869-.498.4209-.9971 1.1211-1.126.7138-.124 1.3535.168 1.4443.6621zm0 0"/></g></svg>